<svg
       id="Layer_1" data-name="Layer 1" xmlns="http://www.w3.org/2000/svg" viewBox="0 0 411.9 50.85"><title>logo</title><polygon points="404.77 0.01 404.77 0.91 403.04 0.91 403.04 5.89 401.97 5.89 401.97 0.91 400.22 0.91 400.22 0.01 404.77 0.01"/><path d="M413.29,7.74c0,.09.07.19.11.28,0-.1.07-.2.11-.29a1.69,1.69,0,0,1,.13-.27l1.71-3.26a.36.36,0,0,1,.07-.1.14.14,0,0,1,.08,0l.09,0h.93V9.9h-.94V6.1a1.85,1.85,0,0,1,0-.23c0-.08,0-.17,0-.26L413.87,9a.46.46,0,0,1-.16.18.4.4,0,0,1-.22.06h-.15a.4.4,0,0,1-.22-.06A.47.47,0,0,1,413,9L411.19,5.6a2.46,2.46,0,0,1,0,.26,2,2,0,0,1,0,.24V9.9h-.94V4h.93l.09,0,.08.05a.29.29,0,0,1,.07.1l1.72,3.27a2.17,2.17,0,0,1,.12.26" transform="translate(-4.62 -4.02)"/><path d="M45.29,19.93q-1.87-2.36-3.51-4a15.74,15.74,0,0,0-3.36-2.66,13.13,13.13,0,0,0-3.66-1.45,19.65,19.65,0,0,0-4.42-.45,23.93,23.93,0,0,0-6.57,1,18.89,18.89,0,0,0-6.29,3.15,16.55,16.55,0,0,0-4.72,5.78,19.31,19.31,0,0,0-1.85,8.87,19.93,19.93,0,0,0,1.51,8,16.85,16.85,0,0,0,4.15,5.87,17.64,17.64,0,0,0,6.23,3.63,23.44,23.44,0,0,0,7.72,1.24A25.94,25.94,0,0,0,36.88,48,23.47,23.47,0,0,0,43,45.54V36.4H25.49V30.29H49.28V48.81a41.31,41.31,0,0,1-4.93,2.85,36.41,36.41,0,0,1-4.69,1.88,26.27,26.27,0,0,1-4.66,1,38.84,38.84,0,0,1-4.9.3,28.23,28.23,0,0,1-9.62-1.64A23.43,23.43,0,0,1,6.74,40.64,25,25,0,0,1,4.62,30.11,26.59,26.59,0,0,1,5.77,22a22.94,22.94,0,0,1,3.09-6.36,21.44,21.44,0,0,1,4.48-4.72,25.33,25.33,0,0,1,5.39-3.21,28,28,0,0,1,5.78-1.82,29.44,29.44,0,0,1,5.6-.58A26.43,26.43,0,0,1,36.5,6a19,19,0,0,1,5.17,2.09,22.74,22.74,0,0,1,4.48,3.51,56.53,56.53,0,0,1,4.36,5Z" transform="translate(-4.62 -4.02)"/><path d="M55.09,16.85h6.17V54H55.09ZM55.09,5h6.17v9.81H55.09Z" transform="translate(-4.62 -4.02)"/><path d="M95.47,26.29c-.65-.68-1.18-1.24-1.6-1.66a13.82,13.82,0,0,0-1.09-1,8.7,8.7,0,0,0-.73-.54,4.05,4.05,0,0,0-.52-.3A8.11,8.11,0,0,0,90,22.3a10.4,10.4,0,0,0-2.12-.18,16.79,16.79,0,0,0-2.88.27,12.5,12.5,0,0,0-3.3,1.12,14.55,14.55,0,0,1-2.91,1A7.23,7.23,0,0,0,76,25.93V54H69.8V16.85H76v3.09c.52-.32,1-.64,1.57-.94a15.52,15.52,0,0,1,1.63-.82,24.71,24.71,0,0,1,4.08-1.48,18,18,0,0,1,4.63-.58,20.5,20.5,0,0,1,3.09.24,11.54,11.54,0,0,1,3.15,1,10.42,10.42,0,0,1,2.27,1.36c.75.59,1.85,1.5,3.3,2.75Z" transform="translate(-4.62 -4.02)"/><rect x="98.72" y="1.02" width="6.18" height="48.97"/><path d="M153,47.66a12.91,12.91,0,0,1-3.54,3.63q-4.84,3.45-13.26,3.45a36.94,36.94,0,0,1-6-.45,39.37,39.37,0,0,1-5.12-1.18,14.27,14.27,0,0,1-2.27-.88A19.07,19.07,0,0,1,120.68,51a27,27,0,0,1-2.21-1.63c-.77-.62-1.64-1.36-2.6-2.21l4.54-4.54a18.8,18.8,0,0,0,6.41,4.48,23.15,23.15,0,0,0,9.08,1.58,26.53,26.53,0,0,0,5.48-.55,12.56,12.56,0,0,0,4.45-1.75A4.24,4.24,0,0,0,148,42.83a4.37,4.37,0,0,0-.3-1.57,3.1,3.1,0,0,0-1-1.33,9,9,0,0,0-1.21-.79,10.87,10.87,0,0,0-1.91-.73,32.2,32.2,0,0,0-3.18-.7l-5-.82c-1.94-.28-3.6-.54-5-.79a36.53,36.53,0,0,1-3.63-.79,17.41,17.41,0,0,1-2.69-.94,12.75,12.75,0,0,1-2.24-1.3,9.88,9.88,0,0,1-2.76-3,7.72,7.72,0,0,1-1-4,7.87,7.87,0,0,1,1.48-4.84,9.69,9.69,0,0,1,4-3.09A20.29,20.29,0,0,1,129,16.62a43.29,43.29,0,0,1,6.69-.48,43.82,43.82,0,0,1,5.39.33,19.5,19.5,0,0,1,5.21,1.42,13,13,0,0,1,1.66.85,15.4,15.4,0,0,1,1.69,1.18,18.24,18.24,0,0,1,1.82,1.69c.62.67,1.32,1.46,2.09,2.39l-4.84,4.18a15,15,0,0,0-2.24-2.63,11.74,11.74,0,0,0-2.75-1.88,13.26,13.26,0,0,0-3.51-1.12,25.28,25.28,0,0,0-4.51-.36,45.11,45.11,0,0,0-5.39.3,11.44,11.44,0,0,0-4.06,1.15,4,4,0,0,0-1.54,1.21,2.31,2.31,0,0,0-.39,1.27,2.53,2.53,0,0,0,.18.94,2.38,2.38,0,0,0,.85.94,7,7,0,0,0,1.15.73,9.4,9.4,0,0,0,1.79.6c.79.2,1.84.42,3.15.67s3.06.53,5.24.85c1.94.32,3.62.61,5.06.88a36.26,36.26,0,0,1,3.81.88,16.27,16.27,0,0,1,2.9,1.12,14.82,14.82,0,0,1,2.33,1.48,9,9,0,0,1,2.54,3.33,9.76,9.76,0,0,1,.91,4.12,9.6,9.6,0,0,1-1.26,5" transform="translate(-4.62 -4.02)"/><path d="M180.28,16.85h6.17V54h-6.17Zm0-11.81h6.17v9.81h-6.17Z" transform="translate(-4.62 -4.02)"/><path d="M223.2,54V28.89a11.61,11.61,0,0,0-.3-2.82,4.38,4.38,0,0,0-1.15-2,6.79,6.79,0,0,0-2.12-1.33,10.68,10.68,0,0,0-4.06-.6,21,21,0,0,0-7.08,1.45c-.52.2-1.11.45-1.76.76s-1.29.65-1.94,1-1.28.78-1.91,1.18-1.2.81-1.72,1.21V54H195V16.85h6.24s0,.26,0,.66,0,.91-.06,1.52,0,1.15,0,1.63c.93-.56,1.82-1.07,2.69-1.51s1.76-.85,2.69-1.21a24.48,24.48,0,0,1,4.69-1.39,24.76,24.76,0,0,1,4.51-.43,18.14,18.14,0,0,1,5.93.91,10.75,10.75,0,0,1,4.48,2.85,11,11,0,0,1,2.48,3.9,14.81,14.81,0,0,1,.79,5.06V54Z" transform="translate(-4.62 -4.02)"/><polygon points="272.63 8.23 272.63 50 266.34 50 266.34 8.23 248.66 8.23 248.66 2.11 290.31 2.11 290.31 8.23 272.63 8.23"/><path d="M315.24,28.62a14.35,14.35,0,0,0-2.6-3.3A12.5,12.5,0,0,0,309.1,23a10.65,10.65,0,0,0-4.36-.88,13.59,13.59,0,0,0-5,.88,14.08,14.08,0,0,0-4,2.3,13.31,13.31,0,0,0-2.88,3.3,12.05,12.05,0,0,0-1.57,3.88h25.48a15,15,0,0,0-1.55-3.85m-24,9.11A12.91,12.91,0,0,0,293,42.88a11.9,11.9,0,0,0,3.18,3.42,12.44,12.44,0,0,0,4.06,1.88,17.46,17.46,0,0,0,4.39.57,32.31,32.31,0,0,0,5.18-.45c1.84-.3,3.59-.65,5.27-1.06s3.2-.82,4.57-1.24,2.44-.75,3.21-1l.42,6a11.35,11.35,0,0,0-1.3.36c-.79.24-1.89.56-3.3.94s-2.92.76-4.51,1.12-3.23.68-4.9.94a29.77,29.77,0,0,1-4.51.39,24.73,24.73,0,0,1-7.6-1.21,16.77,16.77,0,0,1-6.69-4.05,18.18,18.18,0,0,1-4.09-6.11A21.66,21.66,0,0,1,284.9,35a19.54,19.54,0,0,1,1.54-7.9A17,17,0,0,1,290.89,21a20.17,20.17,0,0,1,6.11-3.6,21.76,21.76,0,0,1,7.75-1.3,18.74,18.74,0,0,1,7.38,1.48A18.23,18.23,0,0,1,318.37,22a18.82,18.82,0,0,1,3.69,6.14,27.44,27.44,0,0,1,1.39,9.59H291.24Z" transform="translate(-4.62 -4.02)"/><path d="M363.27,48.42a19.58,19.58,0,0,1-3.94,3.39A17.51,17.51,0,0,1,354.4,54a23.52,23.52,0,0,1-6.27.76,25.69,25.69,0,0,1-7.51-1.12,19.31,19.31,0,0,1-6.57-3.45,17,17,0,0,1-4.63-6,20.08,20.08,0,0,1-1.76-8.75,19.26,19.26,0,0,1,1.79-8.59,18,18,0,0,1,4.69-6,19.44,19.44,0,0,1,6.57-3.54,24.5,24.5,0,0,1,7.42-1.15,24.84,24.84,0,0,1,5.39.54A17.52,17.52,0,0,1,358,18.35a18.47,18.47,0,0,1,4,2.91,34.69,34.69,0,0,1,3.75,4.27l-5.39,3.15a24.19,24.19,0,0,0-2.51-3,12,12,0,0,0-2.66-2,11.4,11.4,0,0,0-3.12-1.15,19.07,19.07,0,0,0-3.93-.36,17.46,17.46,0,0,0-5.36.82,13.34,13.34,0,0,0-4.57,2.48A12,12,0,0,0,335,29.63a13.56,13.56,0,0,0-1.18,5.84,14,14,0,0,0,1.18,6,11.88,11.88,0,0,0,3.15,4.15A12.44,12.44,0,0,0,342.71,48a18.88,18.88,0,0,0,5.42.76,18.09,18.09,0,0,0,4.39-.48,11.29,11.29,0,0,0,3.39-1.46,12.73,12.73,0,0,0,2.72-2.39A26.68,26.68,0,0,0,361,41.22L366.59,44a36.54,36.54,0,0,1-3.32,4.41" transform="translate(-4.62 -4.02)"/><path d="M398.68,54V28.89a11.61,11.61,0,0,0-.3-2.82,4.38,4.38,0,0,0-1.15-2,6.74,6.74,0,0,0-2.15-1.33,10.69,10.69,0,0,0-4-.6A20.27,20.27,0,0,0,384,23.56c-.52.2-1.11.45-1.76.76s-1.3.65-2,1-1.31.78-1.93,1.18a17.24,17.24,0,0,0-1.67,1.21V54h-6.17V5h6.17V20.6a25.12,25.12,0,0,1,2.63-1.48c.87-.42,1.75-.82,2.63-1.18a24.48,24.48,0,0,1,4.69-1.39,25.08,25.08,0,0,1,4.57-.43,18.14,18.14,0,0,1,5.93.91,10.75,10.75,0,0,1,4.48,2.85,11,11,0,0,1,2.48,3.9,14.81,14.81,0,0,1,.79,5.06V54Z" transform="translate(-4.62 -4.02)"/></svg>